<mxfile host="app.diagrams.net" modified="2022-08-25T01:23:11.865Z" agent="5.0 (Macintosh; Intel Mac OS X 10_15_7) AppleWebKit/605.1.15 (KHTML, like Gecko) Version/15.6 Safari/605.1.15" etag="xruhPNQx4DQrnT0wZk1p" version="20.2.6" type="github">
  <diagram id="ybNOIxN1loMLFpJrF7zq" name="Page-1">
    <mxGraphModel dx="1723" dy="496" grid="1" gridSize="10" guides="1" tooltips="1" connect="1" arrows="1" fold="1" page="1" pageScale="1" pageWidth="827" pageHeight="1169" math="0" shadow="0">
      <root>
        <mxCell id="0" />
        <mxCell id="1" parent="0" />
        <mxCell id="ruh-bFPlKQDP5QZwZuNB-1" value="Inicio" style="strokeWidth=2;html=1;shape=mxgraph.flowchart.terminator;whiteSpace=wrap;" vertex="1" parent="1">
          <mxGeometry x="226" y="30" width="100" height="40" as="geometry" />
        </mxCell>
        <mxCell id="ruh-bFPlKQDP5QZwZuNB-2" style="edgeStyle=orthogonalEdgeStyle;rounded=0;orthogonalLoop=1;jettySize=auto;html=1;exitX=0.5;exitY=1;exitDx=0;exitDy=0;entryX=0.5;entryY=0;entryDx=0;entryDy=0;entryPerimeter=0;" edge="1" parent="1" source="ruh-bFPlKQDP5QZwZuNB-3" target="ruh-bFPlKQDP5QZwZuNB-10">
          <mxGeometry relative="1" as="geometry" />
        </mxCell>
        <mxCell id="ruh-bFPlKQDP5QZwZuNB-3" value="sonidos" style="shape=parallelogram;html=1;strokeWidth=2;perimeter=parallelogramPerimeter;whiteSpace=wrap;rounded=1;arcSize=12;size=0.23;" vertex="1" parent="1">
          <mxGeometry x="181" y="110" width="190" height="40" as="geometry" />
        </mxCell>
        <mxCell id="ruh-bFPlKQDP5QZwZuNB-4" value="Fin" style="strokeWidth=2;html=1;shape=mxgraph.flowchart.terminator;whiteSpace=wrap;" vertex="1" parent="1">
          <mxGeometry x="226" y="500" width="100" height="40" as="geometry" />
        </mxCell>
        <mxCell id="ruh-bFPlKQDP5QZwZuNB-5" value="" style="endArrow=classic;html=1;rounded=0;exitX=0.5;exitY=1;exitDx=0;exitDy=0;exitPerimeter=0;entryX=0.5;entryY=0;entryDx=0;entryDy=0;" edge="1" parent="1" source="ruh-bFPlKQDP5QZwZuNB-1" target="ruh-bFPlKQDP5QZwZuNB-3">
          <mxGeometry width="50" height="50" relative="1" as="geometry">
            <mxPoint x="106" y="230" as="sourcePoint" />
            <mxPoint x="156" y="180" as="targetPoint" />
          </mxGeometry>
        </mxCell>
        <mxCell id="ruh-bFPlKQDP5QZwZuNB-6" style="edgeStyle=orthogonalEdgeStyle;rounded=0;orthogonalLoop=1;jettySize=auto;html=1;exitX=0;exitY=0.5;exitDx=0;exitDy=0;exitPerimeter=0;entryX=0.5;entryY=0;entryDx=0;entryDy=0;" edge="1" parent="1" source="ruh-bFPlKQDP5QZwZuNB-10" target="ruh-bFPlKQDP5QZwZuNB-16">
          <mxGeometry relative="1" as="geometry" />
        </mxCell>
        <mxCell id="ruh-bFPlKQDP5QZwZuNB-7" value="SI" style="edgeLabel;html=1;align=center;verticalAlign=middle;resizable=0;points=[];" vertex="1" connectable="0" parent="ruh-bFPlKQDP5QZwZuNB-6">
          <mxGeometry x="-0.3495" y="1" relative="1" as="geometry">
            <mxPoint as="offset" />
          </mxGeometry>
        </mxCell>
        <mxCell id="ruh-bFPlKQDP5QZwZuNB-8" style="edgeStyle=orthogonalEdgeStyle;rounded=0;orthogonalLoop=1;jettySize=auto;html=1;exitX=1;exitY=0.5;exitDx=0;exitDy=0;exitPerimeter=0;entryX=0.5;entryY=0;entryDx=0;entryDy=0;entryPerimeter=0;" edge="1" parent="1" source="ruh-bFPlKQDP5QZwZuNB-10" target="ruh-bFPlKQDP5QZwZuNB-12">
          <mxGeometry relative="1" as="geometry">
            <mxPoint x="541" y="400" as="targetPoint" />
            <Array as="points">
              <mxPoint x="377" y="225" />
            </Array>
          </mxGeometry>
        </mxCell>
        <mxCell id="ruh-bFPlKQDP5QZwZuNB-9" value="NO" style="edgeLabel;html=1;align=center;verticalAlign=middle;resizable=0;points=[];" vertex="1" connectable="0" parent="ruh-bFPlKQDP5QZwZuNB-8">
          <mxGeometry x="-0.3232" relative="1" as="geometry">
            <mxPoint as="offset" />
          </mxGeometry>
        </mxCell>
        <mxCell id="ruh-bFPlKQDP5QZwZuNB-10" value="sonidos &amp;gt;= 0" style="strokeWidth=2;html=1;shape=mxgraph.flowchart.decision;whiteSpace=wrap;" vertex="1" parent="1">
          <mxGeometry x="208.5" y="190" width="135" height="70" as="geometry" />
        </mxCell>
        <mxCell id="ruh-bFPlKQDP5QZwZuNB-21" style="edgeStyle=orthogonalEdgeStyle;rounded=0;orthogonalLoop=1;jettySize=auto;html=1;entryX=1;entryY=0.5;entryDx=0;entryDy=0;entryPerimeter=0;" edge="1" parent="1" source="ruh-bFPlKQDP5QZwZuNB-12" target="ruh-bFPlKQDP5QZwZuNB-4">
          <mxGeometry relative="1" as="geometry" />
        </mxCell>
        <mxCell id="ruh-bFPlKQDP5QZwZuNB-12" value="&quot;Número de sonidos ingresado no válido&quot;" style="strokeWidth=2;html=1;shape=mxgraph.flowchart.document2;whiteSpace=wrap;size=0.25;" vertex="1" parent="1">
          <mxGeometry x="300" y="360" width="154" height="70" as="geometry" />
        </mxCell>
        <mxCell id="ruh-bFPlKQDP5QZwZuNB-13" value="&lt;div style=&quot;font-style: normal; font-variant-caps: normal; font-weight: normal; letter-spacing: normal; text-align: start; text-indent: 0px; text-transform: none; word-spacing: 0px; -webkit-text-stroke-width: 0px; text-decoration: none; color: rgb(171, 178, 191); background-color: rgb(40, 44, 52); font-family: &amp;quot;Fira Code&amp;quot;, &amp;quot;Menlo for Powerline&amp;quot;, Menlo, Monaco, &amp;quot;Courier New&amp;quot;, monospace; font-size: 12px; line-height: 18px;&quot;&gt;&lt;div&gt;&lt;span style=&quot;color: rgb(127, 132, 142); font-style: italic;&quot;&gt;Mostrar resultados al usuario&lt;/span&gt;&lt;/div&gt;&lt;/div&gt;" style="text;whiteSpace=wrap;html=1;" vertex="1" parent="1">
          <mxGeometry x="480" y="380" width="240" height="30" as="geometry" />
        </mxCell>
        <mxCell id="ruh-bFPlKQDP5QZwZuNB-14" value="&lt;div style=&quot;font-style: normal; font-variant-caps: normal; font-weight: normal; letter-spacing: normal; text-align: start; text-indent: 0px; text-transform: none; word-spacing: 0px; -webkit-text-stroke-width: 0px; text-decoration: none; color: rgb(171, 178, 191); background-color: rgb(40, 44, 52); font-family: &amp;quot;Fira Code&amp;quot;, &amp;quot;Menlo for Powerline&amp;quot;, Menlo, Monaco, &amp;quot;Courier New&amp;quot;, monospace; font-size: 12px; line-height: 18px;&quot;&gt;&lt;div&gt;&lt;span style=&quot;color: rgb(127, 132, 142); font-style: italic;&quot;&gt;Desarrollo de operaciones&lt;/span&gt;&lt;/div&gt;&lt;/div&gt;" style="text;whiteSpace=wrap;html=1;" vertex="1" parent="1">
          <mxGeometry x="430" y="260" width="210" height="30" as="geometry" />
        </mxCell>
        <mxCell id="ruh-bFPlKQDP5QZwZuNB-15" style="edgeStyle=orthogonalEdgeStyle;rounded=0;orthogonalLoop=1;jettySize=auto;html=1;exitX=0.5;exitY=1;exitDx=0;exitDy=0;entryX=0.5;entryY=0;entryDx=0;entryDy=0;entryPerimeter=0;" edge="1" parent="1" source="ruh-bFPlKQDP5QZwZuNB-16" target="ruh-bFPlKQDP5QZwZuNB-20">
          <mxGeometry relative="1" as="geometry">
            <mxPoint x="276" y="380" as="targetPoint" />
          </mxGeometry>
        </mxCell>
        <mxCell id="ruh-bFPlKQDP5QZwZuNB-16" value="temperatura = 10 + (numeroSonidos-40)/7" style="rounded=1;whiteSpace=wrap;html=1;absoluteArcSize=1;arcSize=14;strokeWidth=2;" vertex="1" parent="1">
          <mxGeometry y="280" width="252" height="50" as="geometry" />
        </mxCell>
        <mxCell id="ruh-bFPlKQDP5QZwZuNB-19" value="&lt;meta charset=&quot;utf-8&quot;&gt;&lt;div style=&quot;font-style: normal; font-variant-caps: normal; font-weight: normal; letter-spacing: normal; text-align: start; text-indent: 0px; text-transform: none; word-spacing: 0px; -webkit-text-stroke-width: 0px; text-decoration: none; color: rgb(171, 178, 191); background-color: rgb(40, 44, 52); font-family: &amp;quot;Fira Code&amp;quot;, &amp;quot;Menlo for Powerline&amp;quot;, Menlo, Monaco, &amp;quot;Courier New&amp;quot;, monospace; font-size: 12px; line-height: 18px;&quot;&gt;&lt;div&gt;&lt;span style=&quot;color: rgb(127, 132, 142); font-style: italic;&quot;&gt;Declaración de variables e ingrese de datos&lt;/span&gt;&lt;/div&gt;&lt;/div&gt;" style="text;whiteSpace=wrap;html=1;" vertex="1" parent="1">
          <mxGeometry x="400" y="115" width="340" height="30" as="geometry" />
        </mxCell>
        <mxCell id="ruh-bFPlKQDP5QZwZuNB-22" style="edgeStyle=orthogonalEdgeStyle;rounded=0;orthogonalLoop=1;jettySize=auto;html=1;entryX=0;entryY=0.5;entryDx=0;entryDy=0;entryPerimeter=0;" edge="1" parent="1" source="ruh-bFPlKQDP5QZwZuNB-20" target="ruh-bFPlKQDP5QZwZuNB-4">
          <mxGeometry relative="1" as="geometry">
            <Array as="points">
              <mxPoint x="120" y="520" />
            </Array>
          </mxGeometry>
        </mxCell>
        <mxCell id="ruh-bFPlKQDP5QZwZuNB-20" value="temperatura" style="strokeWidth=2;html=1;shape=mxgraph.flowchart.document2;whiteSpace=wrap;size=0.25;" vertex="1" parent="1">
          <mxGeometry x="49" y="360" width="154" height="70" as="geometry" />
        </mxCell>
      </root>
    </mxGraphModel>
  </diagram>
</mxfile>
